<?xml version="1.0" standalone="no"?>
<!DOCTYPE svg PUBLIC "-//W3C//DTD SVG 20010904//EN"
 "http://www.w3.org/TR/2001/REC-SVG-20010904/DTD/svg10.dtd">
<svg version="1.0" xmlns="http://www.w3.org/2000/svg"
 width="5000.000000pt" height="5000.000000pt" viewBox="0 0 5000.000000 5000.000000"
 preserveAspectRatio="xMidYMid meet">

<g transform="translate(0.000000,5000.000000) scale(0.100000,-0.100000)"
fill="#000000" stroke="none">
<path d="M24260 45084 c-601 -28 -964 -60 -1425 -125 -3087 -437 -5913 -1979
-7921 -4324 -1284 -1499 -2188 -3280 -2623 -5165 -153 -666 -242 -1274 -293
-2020 -17 -246 -17 -1174 0 -1420 66 -961 208 -1782 456 -2644 258 -892 645
-1808 1103 -2609 41 -72 2553 -5035 5580 -11027 3028 -5992 5515 -10915 5527
-10939 l22 -43 5514 10913 c3032 6003 5550 10979 5595 11059 897 1580 1414
3248 1559 5030 49 599 49 1332 1 1940 -266 3317 -1889 6368 -4530 8515 -1421
1156 -3126 2010 -4915 2464 -810 205 -1581 323 -2485 381 -158 11 -1020 21
-1165 14z m1135 -1933 c406 -32 733 -69 1055 -122 1523 -249 2956 -814 4236
-1667 650 -434 1165 -860 1714 -1418 1080 -1098 1896 -2397 2411 -3841 531
-1488 710 -3111 518 -4708 -308 -2564 -1593 -4950 -3589 -6666 -1613 -1385
-3608 -2267 -5710 -2523 -494 -61 -816 -80 -1340 -80 -789 0 -1454 66 -2202
220 -2069 425 -3964 1447 -5458 2944 -1750 1755 -2821 4048 -3025 6475 -36
430 -46 1002 -25 1400 92 1731 583 3335 1473 4820 847 1413 2040 2629 3457
3523 1571 991 3334 1548 5225 1652 205 11 1077 5 1260 -9z m5004 -21793 c-94
-68 -422 -280 -569 -368 -1268 -758 -2742 -1276 -4125 -1449 -456 -58 -783
-75 -1285 -68 -400 5 -510 12 -835 48 -1384 153 -2707 643 -3960 1467 -265
174 -649 450 -485 349 525 -325 1299 -677 2018 -917 937 -312 1861 -491 2902
-562 242 -16 1039 -16 1280 0 1437 98 2689 410 4044 1008 214 95 704 336 896
442 158 87 187 99 119 50z"/>
<path d="M24245 41759 c-1816 -82 -3590 -706 -5063 -1779 -594 -433 -1193
-995 -1667 -1565 -717 -862 -1279 -1868 -1631 -2925 -697 -2085 -600 -4373
268 -6390 695 -1614 1864 -3015 3334 -3998 1400 -935 2966 -1458 4674 -1562
213 -13 837 -13 1050 0 891 54 1704 213 2515 491 1619 554 3042 1538 4145
2864 530 636 999 1399 1333 2165 671 1543 894 3222 651 4900 -230 1587 -914
3133 -1939 4385 -212 259 -354 415 -635 695 -475 475 -871 802 -1400 1155
-1664 1113 -3619 1655 -5635 1564z m-730 -3249 c1381 -69 2574 -348 3175 -741
122 -80 247 -204 285 -283 33 -68 38 -157 12 -216 -154 -353 -975 -707 -2072
-895 -681 -117 -1291 -165 -2095 -165 -804 0 -1414 48 -2095 165 -1098 188
-1918 542 -2072 895 -26 59 -21 148 12 216 37 77 162 201 281 280 647 430
1984 716 3549 758 190 5 801 -4 1020 -14z m6046 -750 c424 -42 842 -173 1223
-382 123 -67 389 -241 478 -312 l58 -46 -5 -253 c-3 -138 -26 -2146 -51 -4462
-25 -2315 -47 -4211 -49 -4213 -1 -1 -40 14 -86 33 -239 103 -626 229 -947
309 -467 117 -850 168 -1267 168 -436 0 -774 -59 -1107 -191 -167 -66 -364
-177 -485 -272 -35 -27 -65 -49 -68 -49 -3 0 -5 2025 -5 4500 l0 4500 -30 0
c-16 0 -30 3 -30 8 0 20 349 224 520 305 432 203 833 315 1290 360 83 9 467 6
561 -3z m-10878 -893 c84 -82 245 -194 387 -270 513 -275 1471 -511 2420 -597
69 -6 135 -13 148 -16 l22 -4 0 -4635 c0 -2548 -3 -4636 -7 -4638 -8 -4 -31
-2 -318 28 -782 84 -1523 257 -2035 476 -398 171 -674 397 -747 613 -17 48
-18 297 -20 4631 l-2 4580 36 -45 c20 -25 72 -80 116 -123z m8377 -4509 l0
-4602 -41 -63 c-92 -140 -299 -298 -554 -423 -852 -415 -2407 -653 -3992 -610
-330 9 -683 27 -710 35 -10 4 -13 941 -13 4641 l0 4637 118 -7 c64 -3 203 -11
307 -17 252 -15 1026 -15 1295 0 1638 89 2880 404 3437 873 46 38 95 84 110
103 16 19 31 35 36 35 4 0 7 -2071 7 -4602z"/>
<path d="M22810 37770 c-267 -25 -460 -124 -460 -237 0 -66 104 -147 240 -187
249 -75 621 -56 815 41 277 139 98 342 -336 382 -124 12 -133 12 -259 1z"/>
</g>
</svg>
